<svg width="695" height="172" viewBox="0 0 695 172" fill="none" xmlns="http://www.w3.org/2000/svg">
<path fill-rule="evenodd" clip-rule="evenodd" d="M85.8338 171.751C38.6001 171.751 0.310059 133.46 0.310059 86.227C0.310059 38.993 38.6001 0.702026 85.8338 0.702026C133.068 0.702026 171.358 38.993 171.358 86.227C171.358 133.46 133.068 171.751 85.8338 171.751Z" fill="#242C62"/>
<path fill-rule="evenodd" clip-rule="evenodd" d="M98.7569 53.201C99.2279 51.42 101.053 50.359 102.833 50.829C104.614 51.301 105.675 53.126 105.205 54.906C104.734 56.686 102.909 57.748 101.128 57.277C99.3479 56.806 98.2859 54.981 98.7569 53.201ZM77.3839 45.783C76.5579 44.243 76.0909 42.525 76.0049 40.798C72.2909 41.354 68.6619 42.373 65.2359 43.841C61.1441 45.59 57.3411 47.964 53.9751 50.827C47.2301 56.551 42.2641 64.229 39.7241 72.569C37.1671 80.9 37.0381 89.913 39.3581 98.152C40.7731 103.228 43.1321 107.996 46.2261 112.193C47.2551 113.333 48.3901 114.363 49.6161 115.247C52.2801 117.208 55.4031 118.417 58.5541 118.909C64.8879 119.999 71.3229 117.632 75.5189 113.467C77.6019 111.349 79.1289 108.781 80.0239 106.065C80.1629 105.737 80.2189 105.377 80.3129 105.034C80.3959 104.688 80.4929 104.347 80.5699 104.003L80.7249 102.952C80.7819 102.605 80.8409 102.26 80.8419 101.906L80.8979 100.86C80.9159 100.687 80.9149 100.513 80.8989 100.338L80.8729 99.817C80.8519 99.471 80.8569 99.127 80.8209 98.784L80.6689 97.763L80.5999 97.256C80.5759 97.087 80.5179 96.923 80.4799 96.757L80.2359 95.767C80.1779 95.434 80.0179 95.123 79.9149 94.803L79.5789 93.851C79.2679 93.247 79.0099 92.627 78.6929 92.042C78.3699 91.46 78.0079 90.903 77.6179 90.372C76.0659 88.242 74.0389 86.533 71.7869 85.393L66.1169 82.524L73.3819 71.034L78.5499 74.7C80.4409 76.041 82.1479 77.608 83.6409 79.341C83.8359 78.922 84.0369 78.504 84.2489 78.091C85.7729 75.118 87.8079 72.323 90.3589 70.05C92.8969 67.768 95.9309 66.053 99.1339 65.043C100.737 64.538 102.379 64.197 104.042 64.029C104.876 63.946 105.71 63.903 106.574 63.918C106.791 63.922 107.008 63.93 107.245 63.944L107.78 63.983C108.073 64.004 108.376 64.006 108.661 63.992C109.817 63.937 110.787 63.588 111.543 62.907C112.3 62.225 112.853 61.159 113.133 59.933C113.275 59.321 113.351 58.673 113.378 58.014C113.384 57.685 113.388 57.352 113.368 57.018L113.365 56.951C113.341 56.909 113.313 56.862 113.279 56.812C112.961 56.346 112.463 55.798 111.971 55.286C111.471 54.768 110.942 54.255 110.403 53.747C108.238 51.718 105.94 49.765 103.631 47.835L97.9249 43.14C97.5229 44.314 96.9139 45.414 96.1649 46.383L95.4339 47.329L93.5839 45.931L94.2569 44.94C95.0889 43.711 95.6449 42.298 95.7289 40.837C95.8549 39.381 95.5379 37.915 94.9189 36.627C93.6449 34.054 90.9299 32.322 88.1599 32.271C86.7819 32.244 85.3939 32.555 84.2169 33.232C83.0219 33.872 82.0599 34.876 81.3759 36.016C80.7009 37.163 80.3729 38.49 80.3919 39.793C80.4109 41.1 80.7879 42.378 81.4569 43.471L82.6819 45.468L78.4909 47.847L77.3839 45.783Z" fill="white"/>
<path fill-rule="evenodd" clip-rule="evenodd" d="M135.497 31.322C135.589 46.886 135.725 73.275 135.674 86.227C135.658 90.497 135.685 95.984 133.889 101.485C133.13 103.998 132.204 106.453 131.116 108.832C130.012 111.203 128.729 113.482 127.312 115.666C121.605 124.382 113.353 131.305 103.896 135.359C99.1759 137.398 94.1639 138.716 89.0969 139.285C84.0359 139.874 78.9049 139.708 73.9119 138.812C63.9159 137.03 54.5853 132.225 47.3853 125.302C40.1563 118.404 35.0613 109.391 32.9213 99.764C30.7583 90.14 31.4823 80.025 34.8063 70.916C38.1143 61.804 44.0113 53.717 51.6283 47.91C55.4313 45.004 59.6563 42.67 64.1219 41.032C67.9979 39.606 72.0529 38.712 76.1389 38.355C76.3989 36.739 76.9919 35.182 77.8929 33.832C79.0449 32.123 80.6219 30.695 82.4779 29.826C84.3119 28.92 86.3839 28.578 88.3879 28.74C92.4379 29.063 96.0809 31.762 97.6169 35.396C98.3699 37.209 98.6649 39.202 98.3919 41.126C98.3769 41.25 98.3529 41.371 98.3329 41.494L104.944 46.13C107.415 47.893 109.872 49.672 112.274 51.598C112.874 52.083 113.47 52.577 114.061 53.103C114.655 53.639 115.235 54.159 115.836 54.893C115.987 55.082 116.143 55.292 116.307 55.588C116.389 55.743 116.478 55.921 116.554 56.205C116.573 56.284 116.59 56.364 116.603 56.445L116.62 56.565L116.639 56.722C116.688 57.091 116.715 57.465 116.736 57.839C117.739 58.008 118.709 58.455 119.411 59.132C120.833 60.505 120.683 62.32 119.075 63.184C118.131 63.692 116.897 63.757 115.75 63.449C115.389 64.221 114.917 64.964 114.295 65.632C112.927 67.124 110.921 67.969 109.08 68.181C108.614 68.24 108.16 68.272 107.698 68.277L107.102 68.279C106.961 68.281 106.8 68.288 106.64 68.298C105.994 68.338 105.32 68.424 104.657 68.543C103.328 68.783 102.02 69.165 100.776 69.668C98.2849 70.677 96.0549 72.192 94.2389 74.101C92.4149 76.005 90.9979 78.294 89.9579 80.785C89.1809 82.641 88.6039 84.605 88.1879 86.625C88.3259 86.947 88.4679 87.267 88.5919 87.593C88.9719 88.611 89.2629 89.657 89.5819 90.683L89.9129 92.27C90.0069 92.801 90.1509 93.318 90.1869 93.858L90.3489 95.461C90.3699 95.728 90.4089 95.992 90.4129 96.26L90.4169 97.063L90.4139 98.661C90.3919 99.192 90.3239 99.722 90.2769 100.25L90.1959 101.04C90.1749 101.303 90.1379 101.564 90.0809 101.823L89.7749 103.376C89.6869 103.894 89.5359 104.399 89.3819 104.901L88.9269 106.402C88.7449 106.892 88.5399 107.374 88.3459 107.856C88.1409 108.335 87.9699 108.825 87.7129 109.279C85.8779 113.002 83.2149 116.255 79.9969 118.71C76.7469 121.136 73.0019 122.745 69.1399 123.455C68.1839 123.684 67.1929 123.713 66.2259 123.819C65.7429 123.883 65.2509 123.847 64.7649 123.855C64.2789 123.851 63.7929 123.853 63.3099 123.84C61.3783 123.675 59.4653 123.406 57.6433 122.819C57.5443 122.789 57.4483 122.752 57.3503 122.721C62.7953 126.288 69.0079 128.595 75.3769 129.384C79.4769 129.897 83.6489 129.808 87.7009 129.114C91.7499 128.438 95.6759 127.174 99.3149 125.365C106.607 121.769 112.732 115.999 116.749 109.083C117.743 107.349 118.63 105.559 119.373 103.714C120.099 101.863 120.699 99.969 121.172 98.048C125.077 83.808 122.94 35.689 122.221 21.741C111.475 15.664 99.0599 12.192 85.8339 12.192C44.9463 12.192 11.7993 45.339 11.7993 86.227C11.7993 127.115 44.9463 160.261 85.8339 160.261C126.722 160.261 159.869 127.115 159.869 86.227C159.869 64.449 150.464 44.869 135.497 31.322Z" fill="white"/>
<path fill-rule="evenodd" clip-rule="evenodd" d="M113.394 57.006C113.416 57.072 113.426 57.077 113.423 57.066C113.419 57.055 113.405 57.028 113.394 57.006Z" fill="white"/>
<path fill-rule="evenodd" clip-rule="evenodd" d="M218.887 57.1281V97.287C218.887 101.256 220.012 104.351 222.263 106.572C224.514 108.793 227.416 109.904 230.97 109.904C234.525 109.904 237.47 108.793 239.811 106.572C242.15 104.351 243.321 101.256 243.321 97.287V57.1281H256.648V97.3761C256.648 105.077 254.218 111.295 249.362 116.035C244.504 120.833 238.403 123.231 231.059 123.231C223.714 123.231 217.628 120.847 212.801 116.079C207.972 111.312 205.559 105.077 205.559 97.3761V57.1281H218.887Z" fill="#1475BC"/>
<path fill-rule="evenodd" clip-rule="evenodd" d="M276.638 57.1281L291.475 101.908L306.313 57.1281H320.885L298.051 121.987H284.901L261.978 57.1281H276.638Z" fill="#1475BC"/>
<path fill-rule="evenodd" clip-rule="evenodd" d="M327.192 57.1281H368.152V69.3H340.43V82.805H366.374V94.799H340.43V109.193H369.039V121.987H327.192V57.1281Z" fill="#242C62"/>
<path fill-rule="evenodd" clip-rule="evenodd" d="M377.152 57.1281H390.479V83.249H415.445V57.1281H428.774V121.987H415.445V96.4881H390.479V121.987H377.152V57.1281Z" fill="#242C62"/>
<path fill-rule="evenodd" clip-rule="evenodd" d="M471.687 96.399L464.846 75.2531L458.004 96.399H471.687ZM457.648 57.1281H471.953L494.254 121.987H479.683L475.418 108.75H454.361L450.008 121.987H435.347L457.648 57.1281Z" fill="#242C62"/>
<path fill-rule="evenodd" clip-rule="evenodd" d="M499.31 57.1281L514.147 101.908L528.985 57.1281H543.557L520.723 121.987H507.573L484.65 57.1281H499.31Z" fill="#242C62"/>
<path fill-rule="evenodd" clip-rule="evenodd" d="M563.192 121.987H549.865V57.1281H563.192V121.987Z" fill="#242C62"/>
<path fill-rule="evenodd" clip-rule="evenodd" d="M590.586 103.774C594.495 107.683 599.204 109.638 604.712 109.638C610.221 109.638 614.915 107.683 618.795 103.774C622.674 99.865 624.615 95.126 624.615 89.558C624.615 84.049 622.659 79.34 618.751 75.431C614.841 71.521 610.161 69.566 604.712 69.566C599.263 69.566 594.568 71.521 590.63 75.431C586.69 79.34 584.721 84.049 584.721 89.558C584.721 95.126 586.677 99.865 590.586 103.774ZM571.127 89.558C571.127 80.317 574.4 72.41 580.945 65.836C587.49 59.261 595.413 55.973 604.712 55.973C614.011 55.973 621.934 59.261 628.48 65.836C635.024 72.41 638.297 80.317 638.297 89.558C638.297 98.858 635.04 106.794 628.524 113.37C621.95 120.004 614.011 123.32 604.712 123.32C595.413 123.32 587.49 120.019 580.945 113.414C574.4 106.81 571.127 98.858 571.127 89.558Z" fill="#242C62"/>
<path fill-rule="evenodd" clip-rule="evenodd" d="M670.32 86.536C673.281 86.536 675.619 85.7521 677.338 84.1821C679.056 82.6141 679.916 80.643 679.916 78.273C679.916 75.964 679.04 74.023 677.294 72.454C675.546 70.886 673.221 70.1001 670.32 70.1001H659.035V86.536H670.32ZM670.675 57.1281C677.545 57.1281 683.083 59.1571 687.29 63.2141C691.495 67.2711 693.597 72.291 693.597 78.273C693.597 82.538 692.457 86.359 690.177 89.736C687.896 93.112 684.801 95.5101 680.892 96.9321L694.841 121.987H679.649L667.654 99.597H659.035V121.987H645.709V57.1281H670.675Z" fill="#242C62"/>
</svg>
